# xmcd
#
# Track frame offsets:
#	150
#	22647
#	37939
#	49789
#	65618
#	96129
#	126376
#	151643
#	178517
#	206671
#	225174
#	253112
#	270354
#	288535
#
# Disc length: 4045 seconds
#
# Revision: 1
# Processed by: cddbd v1.5.2PL0 Copyright (c) Steve Scherf et al.
# Submitted via: audiograbber 1.83.01
#
DISCID=b00fcb0e
DTITLE=Various Artist - Groove Into Bits Volume 1 [STS remastered analog LP re
DTITLE=cordings]
DYEAR=2017
DGENRE=Singer/Songwriter
TTITLE0=Shawn Colvin - Steady On
TTITLE1=Amos Lee - Last Days At The Lodge
TTITLE2=Dead Can Dance - Saltarello
TTITLE3=The Stranglers - Golden Brown
TTITLE4=Hans Theessink and Terry Evans - Come To The River
TTITLE5=Lou Donaldson - Blues Walk
TTITLE6=Labi Siffre - So Strong [demo track]
TTITLE7=Sam Lightnin' Hopkins - Il Blues
TTITLE8=Cyndee Peters - House Of The Rising Sun
TTITLE9=Paolo Conte - Come di
TTITLE10=Ofra Haza - Kirya
TTITLE11=Paul Simon - Homeless
TTITLE12=Eva Cassidy - Wade In The Water
TTITLE13=The King's Singers - Money, Money, Money
EXTD=
EXTT0=
EXTT1=
EXTT2=
EXTT3=
EXTT4=
EXTT5=
EXTT6=
EXTT7=
EXTT8=
EXTT9=
EXTT10=
EXTT11=
EXTT12=
EXTT13=
PLAYORDER=
